# xmcd CD database file
#
# Track frame offsets:
#	150
#	17670
#	29165
#	53680
#	74435
#	89515
#	111272
#	131387
#	153185
#	172160
#	193722
#	213597
#	232982
#	254222
#
# Disc length: 3688 seconds
#
# Revision: 3
# Processed by: cddbd v1.5.1PL2 Copyright (c) Steve Scherf et al.
# Submitted via: CDex 1.51
#
DISCID=cd0e660e
DTITLE=Alice Babs - Duke Ellington etc.
DYEAR=1900
DGENRE=Jazz
TTITLE0=Song for the dreamer
TTITLE1=Hodgy
TTITLE2=My ship
TTITLE3=Flow gently sweet afton
TTITLE4=It dont mean a thing
TTITLE5=How about a blues
TTITLE6=Checkered hat
TTITLE7=A hundred years from now
TTITLE8=Say when
TTITLE9=Natural affection
TTITLE10=Plastic dreams
TTITLE11=No one knows just what love holds
TTITLE12=Me and you
TTITLE13=Theres something about me
EXTD=
EXTT0=
EXTT1=
EXTT2=
EXTT3=
EXTT4=
EXTT5=
EXTT6=
EXTT7=
EXTT8=
EXTT9=
EXTT10=
EXTT11=
EXTT12=
EXTT13=
PLAYORDER=
